<svg width="336" height="36" viewBox="0 0 336 36" fill="none" xmlns="http://www.w3.org/2000/svg">
<g clip-path="url(#clip0_3_4)">
<path d="M19.7489 23.0425C13.526 21.1634 7.39453 19.1989 1.26308 17.3198C0.897024 17.2344 0.622481 17.0635 0.347939 16.8927C-0.109632 16.6365 -0.109632 16.2094 0.347939 15.9532C0.713995 15.6969 1.08005 15.6115 1.44611 15.4407C7.57756 13.7324 13.709 12.0241 19.8405 10.3158C21.3047 9.88878 22.7689 9.88878 24.1416 10.3158C30.3646 12.1095 36.496 13.8178 42.719 15.5261C43.085 15.6115 43.4511 15.8678 43.7256 16.0386C44.0917 16.2948 44.0917 16.6365 43.7256 16.8927C43.4511 17.149 43.1766 17.2344 42.8105 17.4052C37.0451 19.1989 31.1882 20.9926 25.4228 22.7863C24.3246 23.1279 23.318 23.555 22.2198 23.4696C21.3047 23.4696 20.5726 23.3842 19.7489 23.0425Z" fill="#1A43C3"/>
<path d="M24.5989 26.8005C23.0432 27.313 21.4874 27.313 19.8402 26.8005C16.6372 25.7755 13.2512 24.836 10.0482 23.811C9.68211 23.7256 8.76697 23.5548 8.76697 24.7506C8.76697 26.8859 8.76697 29.0213 8.85848 31.0712C8.76697 31.6691 8.95 32.0962 9.40757 32.5232C10.0482 33.2066 10.9633 33.6336 11.8784 34.0607C13.9833 34.9148 16.2711 35.5127 18.559 35.769C22.128 36.196 25.6056 36.0252 29.0831 35.1711C30.8219 34.744 32.5606 34.1461 34.0249 33.2066C34.2079 33.0357 34.4824 32.8649 34.6655 32.6941C35.2146 32.1816 35.4891 31.7545 35.4891 30.9858C35.4891 28.8504 35.4891 26.7151 35.4891 24.4943C35.4891 24.0673 35.3061 23.5548 34.3909 23.7256L24.5989 26.8005Z" fill="#1A43C3"/>
<path d="M2.54352 21.5051C2.36049 21.4197 1.99443 21.3343 1.99443 21.7614C1.99443 23.8967 1.99443 25.9467 1.99443 28.082C1.99443 28.2528 1.99443 28.5945 1.8114 28.7653C1.26232 29.7903 0.713235 30.8153 0.438692 32.011C0.255664 32.7798 0.347178 33.6339 0.896263 34.3172C1.07929 34.5735 1.35383 34.7443 1.53686 34.9151C1.99443 35.2568 2.54352 35.5984 3.18412 35.513C3.55017 35.4276 4.00774 35.3422 4.28229 35.086C4.55683 34.9151 4.92288 34.6589 5.10591 34.4026C5.83803 33.7193 6.02105 32.6944 5.655 31.7548C5.28894 30.7298 4.83137 29.7049 4.3738 28.6799C4.28229 28.5091 4.19077 28.2528 4.19077 28.082C4.19077 26.1175 4.19077 24.2384 4.19077 22.2739C4.19077 21.9322 4.09926 21.8468 3.82472 21.7614L2.54352 21.5051Z" fill="#FFC45C"/>
</g>
<path d="M58.768 35.363C57.118 35.363 55.666 35.066 54.412 34.472C53.18 33.856 52.223 32.998 51.541 31.898C50.859 30.798 50.507 29.533 50.485 28.103H54.181C54.225 29.291 54.632 30.248 55.402 30.974C56.194 31.7 57.305 32.063 58.735 32.063C60.033 32.063 61.045 31.777 61.771 31.205C62.519 30.633 62.893 29.852 62.893 28.862C62.893 28.092 62.673 27.465 62.233 26.981C61.815 26.497 61.287 26.112 60.649 25.826C60.011 25.518 59.12 25.177 57.976 24.803C56.48 24.297 55.281 23.824 54.379 23.384C53.477 22.922 52.696 22.24 52.036 21.338C51.398 20.436 51.079 19.248 51.079 17.774C51.079 16.586 51.398 15.519 52.036 14.573C52.696 13.627 53.598 12.89 54.742 12.362C55.908 11.812 57.217 11.537 58.669 11.537C60.033 11.537 61.276 11.823 62.398 12.395C63.542 12.945 64.455 13.737 65.137 14.771C65.841 15.783 66.204 16.96 66.226 18.302H62.563C62.519 17.29 62.134 16.465 61.408 15.827C60.704 15.167 59.758 14.837 58.57 14.837C57.47 14.837 56.568 15.101 55.864 15.629C55.16 16.157 54.808 16.894 54.808 17.84C54.808 18.566 55.017 19.171 55.435 19.655C55.853 20.139 56.381 20.524 57.019 20.81C57.679 21.096 58.559 21.415 59.659 21.767C61.155 22.273 62.354 22.757 63.256 23.219C64.18 23.681 64.972 24.374 65.632 25.298C66.292 26.222 66.622 27.432 66.622 28.928C66.622 30.138 66.292 31.238 65.632 32.228C64.972 33.196 64.048 33.966 62.86 34.538C61.672 35.088 60.308 35.363 58.768 35.363ZM89.1314 18.137C90.3414 18.137 91.4194 18.434 92.3654 19.028C93.3114 19.622 94.0374 20.458 94.5434 21.536C95.0714 22.592 95.3354 23.791 95.3354 25.133V35H91.9034V25.496C91.9034 24.264 91.5844 23.263 90.9464 22.493C90.3084 21.723 89.4614 21.338 88.4054 21.338C87.3714 21.338 86.4804 21.734 85.7324 22.526C84.9844 23.318 84.6104 24.308 84.6104 25.496V35H81.1784V25.496C81.1784 24.264 80.8594 23.263 80.2214 22.493C79.6054 21.723 78.7584 21.338 77.6804 21.338C76.6464 21.338 75.7554 21.734 75.0074 22.526C74.2814 23.296 73.9184 24.286 73.9184 25.496V35H70.4864V18.5H73.7534V20.513C74.3254 19.721 75.0184 19.127 75.8324 18.731C76.6464 18.335 77.5154 18.137 78.4394 18.137C79.5394 18.137 80.5514 18.434 81.4754 19.028C82.4214 19.6 83.1474 20.359 83.6534 21.305C84.2694 20.293 85.0394 19.512 85.9634 18.962C86.9094 18.412 87.9654 18.137 89.1314 18.137ZM112.747 18.5H116.08V35H112.747V32.888C111.317 34.538 109.425 35.363 107.071 35.363C105.619 35.363 104.244 34.989 102.946 34.241C101.67 33.493 100.647 32.47 99.877 31.172C99.107 29.852 98.722 28.378 98.722 26.75C98.722 25.122 99.107 23.659 99.877 22.361C100.647 21.041 101.67 20.007 102.946 19.259C104.244 18.511 105.619 18.137 107.071 18.137C109.425 18.137 111.317 18.962 112.747 20.612V18.5ZM107.5 32.162C108.49 32.162 109.392 31.931 110.206 31.469C111.02 30.985 111.658 30.336 112.12 29.522C112.582 28.686 112.813 27.762 112.813 26.75C112.813 25.738 112.582 24.825 112.12 24.011C111.658 23.175 111.02 22.526 110.206 22.064C109.392 21.58 108.49 21.338 107.5 21.338C106.51 21.338 105.608 21.58 104.794 22.064C103.98 22.526 103.342 23.175 102.88 24.011C102.418 24.825 102.187 25.738 102.187 26.75C102.187 27.762 102.418 28.686 102.88 29.522C103.342 30.336 103.98 30.985 104.794 31.469C105.608 31.931 106.51 32.162 107.5 32.162ZM130.625 18.302V21.503H128.744C127.49 21.503 126.423 21.932 125.543 22.79C124.685 23.626 124.256 24.704 124.256 26.024V35H120.824V18.5H124.157V20.612C125.521 19.072 127.226 18.302 129.272 18.302H130.625ZM141.974 21.668H137.915V29.192C137.915 30.006 138.146 30.644 138.608 31.106C139.07 31.568 139.708 31.799 140.522 31.799H141.974V35H139.895C138.245 35 136.925 34.516 135.935 33.548C134.967 32.58 134.483 31.293 134.483 29.687V21.668H131.777V18.5H134.483V14.144H137.915V18.5H141.974V21.668ZM152.675 18.137C154.171 18.137 155.557 18.5 156.833 19.226C158.131 19.93 159.154 20.909 159.902 22.163C160.672 23.417 161.057 24.836 161.057 26.42C161.057 26.992 161.013 27.509 160.925 27.971H147.758C147.956 29.357 148.484 30.446 149.342 31.238C150.222 32.03 151.333 32.426 152.675 32.426C154.677 32.426 156.129 31.634 157.031 30.05H160.562C159.902 31.678 158.89 32.976 157.526 33.944C156.184 34.89 154.567 35.363 152.675 35.363C151.135 35.363 149.716 35 148.418 34.274C147.12 33.526 146.086 32.503 145.316 31.205C144.568 29.885 144.194 28.4 144.194 26.75C144.194 25.1 144.568 23.626 145.316 22.328C146.086 21.008 147.12 19.985 148.418 19.259C149.716 18.511 151.135 18.137 152.675 18.137ZM152.675 21.074C151.377 21.074 150.299 21.437 149.441 22.163C148.605 22.889 148.066 23.89 147.824 25.166H157.493C157.317 23.956 156.8 22.977 155.942 22.229C155.084 21.459 153.995 21.074 152.675 21.074ZM177.327 11.24H180.759V35H177.426V32.888C175.996 34.538 174.104 35.363 171.75 35.363C170.298 35.363 168.923 34.989 167.625 34.241C166.349 33.493 165.326 32.47 164.556 31.172C163.786 29.852 163.401 28.378 163.401 26.75C163.401 25.122 163.786 23.659 164.556 22.361C165.326 21.041 166.349 20.007 167.625 19.259C168.923 18.511 170.298 18.137 171.75 18.137C174.06 18.137 175.919 18.929 177.327 20.513V11.24ZM172.179 32.162C173.169 32.162 174.071 31.931 174.885 31.469C175.699 30.985 176.337 30.336 176.799 29.522C177.261 28.686 177.492 27.762 177.492 26.75C177.492 25.738 177.261 24.825 176.799 24.011C176.337 23.175 175.699 22.526 174.885 22.064C174.071 21.58 173.169 21.338 172.179 21.338C171.189 21.338 170.287 21.58 169.473 22.064C168.659 22.526 168.021 23.175 167.559 24.011C167.097 24.825 166.866 25.738 166.866 26.75C166.866 27.762 167.097 28.686 167.559 29.522C168.021 30.336 168.659 30.985 169.473 31.469C170.287 31.931 171.189 32.162 172.179 32.162ZM192.924 35.363C191.428 35.363 190.119 35.044 188.997 34.406C187.875 33.768 187.006 32.888 186.39 31.766C185.796 30.622 185.499 29.313 185.499 27.839V18.5H188.931V27.839C188.931 29.137 189.294 30.182 190.02 30.974C190.746 31.766 191.714 32.162 192.924 32.162C194.134 32.162 195.102 31.766 195.828 30.974C196.576 30.182 196.95 29.137 196.95 27.839V18.5H200.382V27.839C200.382 29.313 200.074 30.622 199.458 31.766C198.864 32.888 197.995 33.768 196.851 34.406C195.729 35.044 194.42 35.363 192.924 35.363ZM208.467 35H204.936V31.172H208.467V35ZM226.056 18.5H229.389V35H226.056V32.888C224.626 34.538 222.734 35.363 220.38 35.363C218.928 35.363 217.553 34.989 216.255 34.241C214.979 33.493 213.956 32.47 213.186 31.172C212.416 29.852 212.031 28.378 212.031 26.75C212.031 25.122 212.416 23.659 213.186 22.361C213.956 21.041 214.979 20.007 216.255 19.259C217.553 18.511 218.928 18.137 220.38 18.137C222.734 18.137 224.626 18.962 226.056 20.612V18.5ZM220.809 32.162C221.799 32.162 222.701 31.931 223.515 31.469C224.329 30.985 224.967 30.336 225.429 29.522C225.891 28.686 226.122 27.762 226.122 26.75C226.122 25.738 225.891 24.825 225.429 24.011C224.967 23.175 224.329 22.526 223.515 22.064C222.701 21.58 221.799 21.338 220.809 21.338C219.819 21.338 218.917 21.58 218.103 22.064C217.289 22.526 216.651 23.175 216.189 24.011C215.727 24.825 215.496 25.738 215.496 26.75C215.496 27.762 215.727 28.686 216.189 29.522C216.651 30.336 217.289 30.985 218.103 31.469C218.917 31.931 219.819 32.162 220.809 32.162ZM246.046 20.546L237.763 31.832H246.376V35H232.978V32.954L241.294 21.668H233.308V18.5H246.046V20.546Z" fill="#1A43C3"/>
<defs>
<clipPath id="clip0_3_4">
<rect width="44" height="26" fill="white" transform="translate(0 10)"/>
</clipPath>
</defs>
</svg>
