<svg width="654" height="444" viewBox="0 0 654 444" fill="none" xmlns="http://www.w3.org/2000/svg">
<g clip-path="url(#clip0_24_309)">
<path d="M0 435.632C0 440.257 146.402 444 327.007 444C507.612 444 654.014 440.257 654.014 435.632C654.014 431.008 507.612 427.265 327.007 427.265C146.402 427.265 0 431.021 0 435.632Z" fill="#D5D8EF"/>
<path d="M513.817 436.394H238.502C235.435 436.394 232.95 434.002 232.95 431.048V41.8109C232.95 38.8569 235.435 36.4642 238.502 36.4642H513.817C516.884 36.4642 519.369 38.8569 519.369 41.8109V431.048C519.369 434.002 516.884 436.394 513.817 436.394Z" fill="#1F143F"/>
<path d="M508.917 436.394H233.602C230.534 436.394 228.05 434.002 228.05 431.048V41.8109C228.05 38.8569 230.534 36.4642 233.602 36.4642H508.917C511.984 36.4642 514.469 38.8569 514.469 41.8109V431.048C514.469 434.002 511.984 436.394 508.917 436.394Z" fill="#4266B0"/>
<path d="M500.033 53.7874H252.286V419.085H500.033V53.7874Z" fill="#C1C6E0"/>
<path d="M495.133 53.7874H247.386V419.085H495.133V53.7874Z" fill="white"/>
<path d="M431.419 62.0213H311.127V33.6439C311.127 29.9547 314.237 26.9605 318.068 26.9605H424.479C428.31 26.9605 431.419 29.9547 431.419 33.6439V62.0213Z" fill="#1F143F"/>
<path d="M371.259 0C355.796 0 343.261 12.0701 343.261 26.9605C343.261 41.851 355.796 53.9211 371.259 53.9211C386.723 53.9211 399.257 41.851 399.257 26.9605C399.271 12.0701 386.737 0 371.259 0ZM371.259 40.4475C363.528 40.4475 357.253 34.4058 357.253 26.9605C357.253 19.5153 363.528 13.4736 371.259 13.4736C378.991 13.4736 385.265 19.5153 385.265 26.9605C385.265 34.4191 378.991 40.4475 371.259 40.4475Z" fill="#1F143F"/>
<path d="M456.766 156.59H432.183C430.656 156.59 429.407 155.387 429.407 153.917V130.258C429.407 128.788 430.656 127.585 432.183 127.585H456.766C458.293 127.585 459.542 128.788 459.542 130.258V153.93C459.542 155.401 458.293 156.59 456.766 156.59Z" stroke="#D5D8EF" stroke-miterlimit="10"/>
<path d="M420.925 138.064C425.895 142.849 430.864 147.635 435.833 152.42C437.152 153.69 439.415 153.703 440.747 152.42C450.95 142.595 461.166 132.758 471.369 122.933C472.812 121.543 474.242 120.166 475.686 118.776C478.85 115.728 473.937 111.01 470.772 114.044C460.569 123.869 450.353 133.707 440.15 143.531C438.707 144.921 437.277 146.298 435.833 147.688C437.471 147.688 439.109 147.688 440.747 147.688C435.778 142.903 430.809 138.118 425.839 133.332C422.674 130.298 417.76 135.017 420.925 138.064Z" fill="#E95A4F"/>
<path d="M456.766 212.877H432.183C430.656 212.877 429.407 211.674 429.407 210.204V186.532C429.407 185.061 430.656 183.858 432.183 183.858H456.766C458.293 183.858 459.542 185.061 459.542 186.532V210.204C459.542 211.688 458.293 212.877 456.766 212.877Z" stroke="#D5D8EF" stroke-miterlimit="10"/>
<path d="M420.925 194.351C425.895 199.136 430.864 203.922 435.833 208.707C437.152 209.977 439.415 209.99 440.747 208.707C450.95 198.882 461.166 189.045 471.369 179.22C472.812 177.83 474.242 176.453 475.686 175.063C478.85 172.015 473.937 167.297 470.772 170.331C460.569 180.156 450.353 189.994 440.15 199.818C438.707 201.208 437.277 202.585 435.833 203.975C437.471 203.975 439.109 203.975 440.747 203.975C435.778 199.19 430.809 194.405 425.839 189.619C422.674 186.585 417.76 191.303 420.925 194.351Z" fill="#E95A4F"/>
<path d="M456.766 266.558H432.183C430.656 266.558 429.407 265.355 429.407 263.884V240.212C429.407 238.742 430.656 237.539 432.183 237.539H456.766C458.293 237.539 459.542 238.742 459.542 240.212V263.884C459.542 265.355 458.293 266.558 456.766 266.558Z" stroke="#D5D8EF" stroke-miterlimit="10"/>
<path d="M420.925 248.032C425.895 252.817 430.864 257.602 435.833 262.387C437.152 263.657 439.415 263.671 440.747 262.387C450.95 252.563 461.166 242.725 471.369 232.901C472.812 231.51 474.242 230.134 475.686 228.743C478.85 225.696 473.937 220.977 470.772 224.012C460.569 233.836 450.353 243.674 440.15 253.499C438.707 254.889 437.277 256.265 435.833 257.656C437.471 257.656 439.109 257.656 440.747 257.656C435.778 252.87 430.809 248.085 425.839 243.3C422.674 240.252 417.76 244.984 420.925 248.032Z" fill="#E95A4F"/>
<path d="M456.766 321.107H432.183C430.656 321.107 429.407 319.904 429.407 318.434V294.761C429.407 293.291 430.656 292.088 432.183 292.088H456.766C458.293 292.088 459.542 293.291 459.542 294.761V318.434C459.542 319.904 458.293 321.107 456.766 321.107Z" stroke="#D5D8EF" stroke-miterlimit="10"/>
<path d="M420.925 302.567C425.895 307.353 430.864 312.138 435.833 316.923C437.152 318.193 439.415 318.206 440.747 316.923C450.95 307.099 461.166 297.261 471.369 287.436C472.812 286.046 474.242 284.67 475.686 283.279C478.85 280.232 473.937 275.513 470.772 278.548C460.569 288.372 450.353 298.21 440.15 308.034C438.707 309.425 437.277 310.801 435.833 312.191C437.471 312.191 439.109 312.191 440.747 312.191C435.778 307.406 430.809 302.621 425.839 297.836C422.674 294.801 417.76 299.52 420.925 302.567Z" fill="#E95A4F"/>
<path d="M406.323 131.06H281.949C281.186 131.06 280.561 130.458 280.561 129.723V127.611C280.561 126.876 281.186 126.275 281.949 126.275H406.323C407.086 126.275 407.711 126.876 407.711 127.611V129.723C407.711 130.458 407.086 131.06 406.323 131.06Z" fill="#C1C6E0"/>
<path d="M406.323 143.397H281.949C281.186 143.397 280.561 142.796 280.561 142.061V139.949C280.561 139.214 281.186 138.612 281.949 138.612H406.323C407.086 138.612 407.711 139.214 407.711 139.949V142.061C407.711 142.796 407.086 143.397 406.323 143.397Z" fill="#C1C6E0"/>
<path d="M376.34 155.721H281.949C281.186 155.721 280.561 155.12 280.561 154.385V152.273C280.561 151.538 281.186 150.936 281.949 150.936H376.34C377.103 150.936 377.728 151.538 377.728 152.273V154.385C377.728 155.133 377.117 155.721 376.34 155.721Z" fill="#C1C6E0"/>
<path d="M406.323 187.347H281.949C281.186 187.347 280.561 186.745 280.561 186.01V183.898C280.561 183.163 281.186 182.562 281.949 182.562H406.323C407.086 182.562 407.711 183.163 407.711 183.898V186.01C407.711 186.745 407.086 187.347 406.323 187.347Z" fill="#C1C6E0"/>
<path d="M406.323 199.684H281.949C281.186 199.684 280.561 199.083 280.561 198.348V196.236C280.561 195.501 281.186 194.899 281.949 194.899H406.323C407.086 194.899 407.711 195.501 407.711 196.236V198.348C407.711 199.083 407.086 199.684 406.323 199.684Z" fill="#C1C6E0"/>
<path d="M376.34 212.008H281.949C281.186 212.008 280.561 211.407 280.561 210.672V208.56C280.561 207.825 281.186 207.223 281.949 207.223H376.34C377.103 207.223 377.728 207.825 377.728 208.56V210.672C377.728 211.407 377.117 212.008 376.34 212.008Z" fill="#C1C6E0"/>
<path d="M406.323 241.027H281.949C281.186 241.027 280.561 240.426 280.561 239.691V237.579C280.561 236.844 281.186 236.242 281.949 236.242H406.323C407.086 236.242 407.711 236.844 407.711 237.579V239.691C407.711 240.426 407.086 241.027 406.323 241.027Z" fill="#C1C6E0"/>
<path d="M406.323 253.351H281.949C281.186 253.351 280.561 252.75 280.561 252.015V249.903C280.561 249.168 281.186 248.566 281.949 248.566H406.323C407.086 248.566 407.711 249.168 407.711 249.903V252.015C407.711 252.763 407.086 253.351 406.323 253.351Z" fill="#C1C6E0"/>
<path d="M376.34 265.689H281.949C281.186 265.689 280.561 265.087 280.561 264.352V262.24C280.561 261.505 281.186 260.904 281.949 260.904H376.34C377.103 260.904 377.728 261.505 377.728 262.24V264.352C377.728 265.087 377.117 265.689 376.34 265.689Z" fill="#C1C6E0"/>
<path d="M406.323 295.563H281.949C281.186 295.563 280.561 294.962 280.561 294.227V292.115C280.561 291.38 281.186 290.778 281.949 290.778H406.323C407.086 290.778 407.711 291.38 407.711 292.115V294.227C407.711 294.975 407.086 295.563 406.323 295.563Z" fill="#C1C6E0"/>
<path d="M406.323 307.901H281.949C281.186 307.901 280.561 307.299 280.561 306.564V304.452C280.561 303.717 281.186 303.116 281.949 303.116H406.323C407.086 303.116 407.711 303.717 407.711 304.452V306.564C407.711 307.299 407.086 307.901 406.323 307.901Z" fill="#C1C6E0"/>
<path d="M376.34 320.238H281.949C281.186 320.238 280.561 319.637 280.561 318.902V316.79C280.561 316.054 281.186 315.453 281.949 315.453H376.34C377.103 315.453 377.728 316.054 377.728 316.79V318.902C377.728 319.637 377.117 320.238 376.34 320.238Z" fill="#C1C6E0"/>
<path d="M242.986 144.6C249.274 145.082 260.49 149.279 258.269 157.339C258.171 157.7 258.033 158.061 257.741 158.301C257.352 158.635 256.783 158.662 256.27 158.676C253.466 158.756 250.412 158.569 248.274 156.818C246.928 155.721 246.081 154.117 244.651 153.128C243.819 152.554 242.847 152.219 241.889 151.899C240.223 151.337 238.558 150.776 236.906 150.214C236.031 149.92 235.032 149.506 234.768 148.651C234.477 147.715 235.24 146.766 236.059 146.191C238.016 144.828 240.57 144.413 242.986 144.6Z" fill="#1F143F"/>
<path d="M96.9028 436.488C96.9306 436.501 96.9722 436.501 97 436.501C99.6235 437.009 102.302 436.916 104.968 436.942C109.812 436.983 114.629 437.023 119.473 436.822C122.444 436.688 123.651 435.272 124.207 432.612C124.79 429.845 124.998 427.011 124.845 424.191C124.831 423.923 124.803 423.629 124.665 423.402C124.47 423.108 124.109 422.961 123.776 422.841C122.596 422.426 121.375 422.146 120.126 422.012C119.265 421.918 117.696 421.624 116.975 422.146C116.253 422.667 115.698 423.897 115.198 424.618C114.559 425.527 113.893 426.436 113.06 427.211C111.45 428.722 109.354 429.658 107.202 430.286C105.051 430.914 102.83 431.248 100.651 431.743C99.0266 432.104 97.3886 432.571 96.0283 433.521C95.4731 433.908 94.9317 434.496 95.015 435.151C95.126 435.927 96.0699 436.314 96.9028 436.488Z" fill="#1F143F"/>
<path d="M215.307 436.488C215.279 436.501 215.238 436.501 215.21 436.501C212.587 437.009 209.907 436.916 207.242 436.942C202.398 436.983 197.581 437.023 192.737 436.822C189.766 436.688 188.559 435.272 188.003 432.612C187.42 429.845 187.212 427.011 187.365 424.191C187.379 423.923 187.406 423.629 187.545 423.402C187.74 423.108 188.101 422.961 188.434 422.841C189.614 422.426 190.835 422.146 192.084 422.012C192.945 421.918 194.514 421.624 195.235 422.146C195.957 422.667 196.512 423.897 197.012 424.618C197.651 425.527 198.317 426.436 199.15 427.211C200.76 428.722 202.856 429.658 205.008 430.286C207.159 430.914 209.38 431.248 211.559 431.743C213.183 432.104 214.821 432.571 216.182 433.521C216.737 433.908 217.278 434.496 217.195 435.151C217.098 435.927 216.154 436.314 215.307 436.488Z" fill="#1F143F"/>
<path d="M156.619 126.796C156.577 127.491 156.494 128.186 156.327 128.868C155.564 131.929 153.218 134.188 151.497 136.768C150.025 138.96 149.706 141.727 150.108 144.266C150.969 149.72 154.384 154.853 158.159 158.876C158.964 159.745 159.894 160.841 160.936 161.442C162.143 162.151 163.781 162.525 165.114 162.953C168.903 164.169 172.831 164.985 176.801 165.372C178.759 165.573 180.716 165.653 182.673 165.68C184.464 165.706 186.199 164.717 187.809 163.955C189.655 163.086 191.432 162.017 192.959 160.68C194.583 159.25 195.888 157.513 197.165 155.788C198.15 154.452 199.15 153.048 199.497 151.444C199.927 149.533 199.413 147.448 200.163 145.616C200.635 144.453 201.551 143.531 202.259 142.488C204.577 139.013 201.287 134.816 203.175 131.194C204.355 128.948 206.729 127.571 207.742 125.232C208.7 123.027 208.672 120.407 207.728 118.201C206.16 114.539 202.606 111.986 198.83 110.395C194.527 108.591 189.072 107.976 185.463 110.876C184.7 111.491 184.047 112.24 183.325 112.895C177.495 118.175 169.944 113.964 163.24 116.397C160.45 117.399 157.979 119.498 157.16 122.251C156.688 123.722 156.716 125.272 156.619 126.796Z" fill="#1F143F"/>
<path d="M353.742 151.417L301.633 143.959L306.047 172.363L353.742 151.417Z" fill="#EEEAED"/>
<path d="M333.656 157.98C334.1 159.705 334.85 161.282 335.905 162.565C339.569 167.07 348.259 164.076 352.576 162.191C357.67 159.972 361.251 155.681 361.737 150.241C361.862 148.757 361.668 147.22 360.904 145.924C359.211 143.063 355.033 142.475 352.007 141.82C348.3 141.018 344.4 140.898 340.735 141.954C334.322 143.838 332.046 151.792 333.656 157.98Z" fill="#E95A4F"/>
<path d="M300.272 143.905L68.4192 172.082L65.6152 203.173L304.992 172.657L300.272 143.905Z" fill="#FFBB00"/>
<path opacity="0.2" d="M63.3527 182.321L301.883 153.743L300.272 143.905L68.4192 172.082L63.3527 182.321Z" fill="white"/>
<path opacity="0.2" d="M64.5741 193.616L303.59 164.169L304.992 172.657L65.6152 203.173L64.5741 193.616Z" fill="#231F20"/>
<path d="M68.4192 172.082L72.5279 202.264L40.1576 206.475C37.2149 206.862 34.5081 204.871 34.1194 202.037L31.1905 181.212C30.788 178.325 32.9395 175.678 35.9517 175.37L68.4192 172.082Z" fill="#68838C"/>
<path d="M44.0581 171.093L49.0969 207.504L32.4259 208.64L27.0123 174.916L44.0581 171.093Z" fill="#C95B59"/>
<path d="M51.4011 170.518L56.5371 207.571L64.6991 206.956L59.2716 169.877" stroke="#506D75" stroke-miterlimit="10"/>
<path d="M304.534 164.303C301.702 165.091 298.69 163.34 297.815 160.386C296.941 157.446 298.523 154.412 301.355 153.636C304.187 152.861 307.199 154.599 308.073 157.553C308.948 160.493 307.365 163.514 304.534 164.303Z" fill="#EEEAED"/>
<path d="M305.561 172.497C302.979 173.205 300.342 171.895 299.634 169.569C298.94 167.244 300.467 164.784 303.035 164.062C305.616 163.354 308.268 164.664 308.962 166.99C309.656 169.329 308.143 171.788 305.561 172.497Z" fill="#EEEAED"/>
<path d="M302.521 153.757C299.939 154.465 297.205 152.874 296.413 150.201C295.608 147.528 297.052 144.788 299.634 144.066C302.216 143.357 304.95 144.948 305.741 147.621C306.547 150.308 305.103 153.048 302.521 153.757Z" fill="#EEEAED"/>
<path d="M128.829 375.91C133.937 355.62 138.671 335.249 141.405 314.544C142.28 307.914 143.126 301.271 144.084 294.654C145.125 287.49 146.319 280.673 147.79 270.501C148.318 266.825 156.216 266.892 159.978 266.05C169.347 263.965 179.008 265.061 188.517 265.221C192.015 265.275 196.762 263.858 199.066 266.812C201.523 269.966 201.468 275.513 201.69 279.256C203.647 312.499 199.511 345.675 198.539 378.878C198.136 392.819 198.386 406.654 199.108 420.582C199.247 423.335 198.539 426.062 195.277 426.476C193.778 426.663 190.724 426.53 189.364 425.768C186.282 424.057 184.353 418.416 183.298 415.422C181.785 411.105 180.966 406.6 180.161 402.136C178.675 393.848 177.954 385.454 177.371 377.073C175.469 349.765 173.997 332.135 176.107 302.434C173.22 318.407 173.29 328.846 168.195 344.312C163.365 358.975 156.327 372.836 149.053 386.483C145.014 394.049 141.183 401.721 136.797 409.113C134.603 412.802 132.285 416.425 129.745 419.9C127.51 422.948 125.761 426.049 121.569 426.516C119.765 426.717 117.946 426.516 116.142 426.303C115.642 426.249 115.073 426.142 114.837 425.714C114.684 425.447 114.726 425.113 114.768 424.819C116.003 416.705 120.181 408.766 122.444 400.826C124.776 392.565 126.733 384.224 128.829 375.91Z" fill="#F0F0F0"/>
<path d="M144.292 271.29C144.82 270.929 145.431 270.648 146.041 270.407C147.249 269.939 148.484 269.565 149.761 269.298C152.718 268.67 152.468 270.367 153.051 272.345C153.759 274.725 155.244 277.077 156.188 279.403C157.229 281.956 159.131 284.175 156.077 285.846C154.523 286.688 152.787 287.223 151.011 287.396C150.664 287.423 150.303 287.45 149.983 287.316C149.678 287.196 149.456 286.942 149.234 286.701C147.874 285.111 146.541 283.36 145.306 281.675C143.529 279.256 142.085 277.198 142.613 274.07C142.71 273.495 142.876 272.92 143.182 272.426C143.459 271.958 143.848 271.597 144.292 271.29Z" fill="#FAB594"/>
<path d="M145.889 288.519C149.831 288.76 153.593 288.626 156.938 286.421C159.908 284.456 162.018 281.582 163.406 278.414C163.753 277.625 162.407 277.278 162.074 278.053C160.811 280.94 158.784 283.64 156.05 285.378C154.828 286.153 153.495 286.728 152.052 287.022C150.025 287.436 147.929 287.289 145.889 287.169C144.986 287.129 145 288.466 145.889 288.519Z" fill="#4C83C3"/>
<path d="M201.093 293.518C199.261 293.812 197.651 293.759 196.332 292.382C195.402 291.406 194.75 290.203 194.18 289.014C192.459 285.365 191.571 281.328 190.932 277.385C190.793 276.543 189.461 276.903 189.6 277.746C190.308 282.063 191.307 286.501 193.361 290.431C193.986 291.634 194.763 292.877 195.818 293.772C197.47 295.189 199.414 295.149 201.468 294.815C202.342 294.668 201.968 293.385 201.093 293.518Z" fill="#4C83C3"/>
<path opacity="0.2" d="M188.697 265.221C188.586 265.221 188.461 265.221 188.35 265.221C178.842 265.074 169.181 263.965 159.811 266.05C156.063 266.892 148.165 266.825 147.624 270.501C147.193 273.442 146.791 276.101 146.416 278.561C148.123 279.924 150.372 280.927 152.066 281.609C158.312 284.135 164.933 285.672 171.596 286.768C179.245 288.025 189.669 286.768 193.625 294.761C195.485 298.517 195.596 302.821 195.666 306.965C196.027 326.454 196.401 346.41 194.638 366.006C193.736 375.99 192.279 385.949 190.002 395.746C188.212 403.486 185.144 411.826 184.852 419.94C185.935 422.346 187.351 424.752 189.183 425.754C190.544 426.516 193.597 426.65 195.097 426.463C198.359 426.062 199.066 423.335 198.928 420.568C198.206 406.64 197.956 392.806 198.359 378.864C199.33 345.662 203.467 312.486 201.51 279.243C201.412 277.639 201.371 275.687 201.149 273.749C198.15 269.792 193.625 266.932 188.697 265.221Z" fill="#FEFEFE"/>
<path d="M204.952 185.075C204.05 185.556 203.217 186.131 202.495 186.852C199.525 189.847 200.469 195.514 204.536 197.225C209.408 199.27 215.307 197.88 220.179 196.583C231.812 193.509 242.75 188.563 253.299 183.003C254.812 182.201 257.13 181.278 258.838 180.009C259.671 179.394 260.337 178.699 260.739 177.897L204.952 185.075Z" fill="#FAB594"/>
<path d="M206.229 205.285C205.355 201.101 204.133 196.998 202.44 193.028C200.524 188.55 197.387 183.163 192.917 180.57C188.739 178.137 180.508 180.463 175.871 181.492C171.513 182.468 164.947 183.791 161.407 186.598C158.145 189.192 158.506 195.688 158.895 199.444C159.353 203.761 160.45 208.012 160.838 212.329C161.56 220.229 159.936 228.155 157.993 235.855C155.675 245.078 152.871 254.22 149.178 263.029C148.637 264.339 148.054 265.702 148.207 267.092C148.457 269.485 150.705 271.169 152.857 272.399C167.015 280.472 184.339 279.229 200.232 278.481C201.551 278.414 202.939 278.32 204.022 277.585C205.368 276.676 205.882 275.005 206.243 273.455C208.214 265.061 208.27 256.386 208.242 247.778C208.2 233.836 209.116 219.119 206.229 205.285Z" fill="#DFEAE5"/>
<path d="M181.937 184.714C178.759 183.778 175.622 182.749 172.526 181.599C172.207 181.479 171.874 181.359 171.638 181.118C170.985 180.476 171.11 179.06 171.055 178.218C170.985 177.121 171.027 176.012 171.11 174.916C171.249 172.911 171.61 170.906 171.596 168.888C171.582 167.27 171.596 165.586 172.359 164.142C173.276 162.418 175.177 161.335 177.135 160.881C179.092 160.427 181.132 160.533 183.145 160.627C183.728 160.654 184.353 160.707 184.797 161.068C186.282 162.298 185.935 164.717 186.129 166.401C186.407 168.848 186.976 171.267 187.531 173.66C187.795 174.782 188.156 175.878 188.434 176.988C188.656 177.87 189.128 179.033 188.767 179.888C187.976 181.8 186.24 183.537 184.547 184.727C184.325 184.887 184.075 185.048 183.797 185.088C183.506 185.128 183.214 185.048 182.937 184.968C182.59 184.901 182.27 184.807 181.937 184.714Z" fill="#FAB594"/>
<path d="M173.928 173.98C177.884 176.413 183.437 177.87 188.128 176.587C187.934 175.624 187.74 174.649 187.518 173.673C186.962 171.267 186.393 168.861 186.116 166.415C185.935 164.731 186.268 162.311 184.783 161.081C184.339 160.721 183.714 160.667 183.131 160.64C181.118 160.533 179.078 160.44 177.121 160.894C175.164 161.349 173.262 162.432 172.346 164.156C171.582 165.599 171.568 167.284 171.582 168.901C171.596 169.944 171.527 171.066 171.471 172.229C172.235 172.858 173.054 173.459 173.928 173.98Z" fill="#EB977D"/>
<path d="M162.671 153.142C163.698 160.119 167.696 166.802 173.928 170.652C178.703 173.593 185.796 175.116 190.918 172.109C197.789 168.072 199.178 158.261 198.997 151.204C198.789 142.876 195.388 133.546 187.004 129.83C181.105 127.224 171.874 126.956 167.654 132.397C163.281 138.024 161.602 145.87 162.671 153.142Z" fill="#FAB594"/>
<path d="M243.832 147.247C247.15 150.201 249.482 153.944 246.067 155.882C244.957 156.51 243.597 155.521 242.889 154.478C242.195 153.436 241.542 152.139 240.279 151.859C239.307 151.645 238.322 152.139 237.461 152.62C234.199 154.412 230.951 156.203 227.689 157.994C227.161 158.275 226.634 158.569 226.051 158.716C224.233 159.157 222.275 157.967 221.526 156.31C220.776 154.652 221.068 152.701 221.873 151.057C224.705 145.242 228.924 144.654 234.921 144.453C238.474 144.333 241.195 144.908 243.832 147.247Z" fill="#FAB594"/>
<path d="M189.253 129.456C187.462 129.656 185.713 130.285 184.228 131.247C181.229 133.199 179.369 136.42 176.676 138.746C174.136 140.938 170.93 142.261 167.848 143.665C167.265 143.932 166.668 144.213 166.28 144.694C165.78 145.309 165.683 146.164 165.738 146.953C166.016 151.417 169.125 155.374 166.738 159.838C166.488 160.306 166.183 160.747 165.752 161.068C163.101 162.966 160.727 158.181 159.783 156.43C158.381 153.823 157.521 150.936 157.229 148.022C156.646 142.168 157.826 134.428 162.698 130.499C167.418 126.676 173.387 124.149 179.605 124.109C181.688 124.096 183.881 124.377 185.88 124.938C187.073 125.272 187.906 125.727 188.836 126.489C189.391 126.943 189.947 127.25 190.377 127.839C190.474 127.959 191.127 129.389 191.085 129.389C190.446 129.376 189.849 129.389 189.253 129.456Z" fill="#1F143F"/>
<path d="M179.841 161.349C182.493 161.135 185.047 161.175 187.67 160.614C190.308 160.039 192.876 159.143 195.263 157.927C195.263 157.927 195.013 160.64 194.93 160.921C194.597 162.004 194.069 163.06 193.375 163.969C191.113 166.936 185.977 167.778 182.756 165.813C181.896 165.292 181.174 164.57 180.646 163.741C180.563 163.594 179.536 161.376 179.841 161.349Z" fill="white"/>
<path d="M189.072 141.499C191.113 140.537 194.055 140.296 195.652 142.128C195.888 142.408 196.387 142.368 196.637 142.128C196.915 141.86 196.873 141.459 196.637 141.179C194.611 138.866 190.946 139.133 188.364 140.35C188.031 140.51 187.934 140.965 188.114 141.259C188.323 141.593 188.739 141.66 189.072 141.499Z" fill="#1F143F"/>
<g opacity="0.2">
<path opacity="0.2" d="M175.358 303.557C174.567 306.016 173.97 308.582 173.262 311.082C170 322.457 165.808 334.019 159.825 344.512C153.287 355.994 144.042 365.016 135.311 374.908C132.23 378.396 129.19 382.019 126.386 385.775C125.137 390.801 123.86 395.827 122.444 400.826C120.181 408.766 116.003 416.692 114.768 424.819C114.726 425.126 114.684 425.447 114.837 425.714C115.073 426.142 115.642 426.249 116.142 426.303C117.946 426.503 119.765 426.717 121.569 426.516C125.747 426.049 127.51 422.948 129.745 419.9C132.285 416.425 134.603 412.802 136.797 409.113C141.183 401.721 145.014 394.049 149.053 386.483C156.327 372.836 163.365 358.975 168.195 344.312C173.29 328.846 173.234 318.42 176.107 302.434C175.913 302.434 175.413 303.396 175.358 303.557Z" fill="#FEFEFE"/>
<path opacity="0.2" d="M176.08 302.434C176.066 302.634 176.052 302.835 176.038 303.022C176.107 302.741 176.177 302.434 176.08 302.434Z" fill="#FEFEFE"/>
</g>
<path d="M174.83 207.036C174.858 209.148 174.9 211.247 174.927 213.358C174.941 214.695 174.969 216.032 174.622 217.328C174.275 218.612 173.526 219.855 172.318 220.523C169.805 221.9 165.835 219.815 164.42 217.703C162.268 214.481 161.491 210.846 161.366 207.023C165.849 207.009 170.347 206.996 174.83 206.996C174.83 206.996 174.83 207.009 174.83 207.036Z" fill="#72C384"/>
<path d="M166.023 164.936C167.782 163.958 167.875 160.942 166.231 158.199C164.586 155.457 161.827 154.027 160.068 155.005C158.308 155.983 158.215 158.999 159.86 161.742C161.504 164.484 164.263 165.915 166.023 164.936Z" fill="#FAB594"/>
<path d="M178.509 150.508C178.911 152.3 178.439 153.917 177.454 154.117C176.468 154.318 175.344 153.035 174.955 151.244C174.553 149.453 175.025 147.849 176.01 147.635C176.982 147.434 178.106 148.717 178.509 150.508Z" fill="#1F143F"/>
<path d="M194.25 147.488C194.403 149.305 193.708 150.856 192.709 150.923C191.71 151.003 190.766 149.586 190.627 147.755C190.474 145.937 191.168 144.387 192.168 144.32C193.167 144.253 194.111 145.656 194.25 147.488Z" fill="#1F143F"/>
<path d="M177.607 142.636C175.871 142.382 174.247 142.97 172.804 143.839C171.43 144.667 170.541 145.937 169.972 147.381C169.833 147.715 170.125 148.116 170.458 148.209C170.847 148.316 171.18 148.076 171.319 147.742C171.749 146.632 172.457 145.63 173.512 145.001C174.608 144.346 175.927 143.732 177.246 143.932C177.62 143.986 177.995 143.839 178.106 143.464C178.176 143.13 177.967 142.689 177.607 142.636Z" fill="#1F143F"/>
<path d="M188.725 178.445L183.992 184.941L191.057 190.702V179.621L188.725 178.445Z" fill="white"/>
<path d="M164.711 183.778L171.18 179.461L183.992 184.941L180.688 192.961L164.711 183.778Z" fill="white"/>
<path d="M151.094 272.947C147.443 273.107 145.056 270.127 144.931 266.504C144.889 265.221 144.903 263.938 144.973 262.668C145.542 252.603 149.817 243.326 153.482 234.037C156.674 225.936 158.631 217.315 158.395 208.627C158.201 201.663 156.813 194.685 154.092 188.216C154.037 188.082 153.981 187.935 154.009 187.788C154.037 187.668 154.12 187.561 154.203 187.467C155.869 185.529 158.118 184.286 160.325 183.016C162.712 181.639 165.03 180.383 167.709 179.568C168.181 179.421 169.972 178.699 170.333 178.779C172.457 179.273 174.803 185.716 175.635 187.507C184.436 206.287 180.882 228.717 171.943 246.802C167.585 255.637 162.574 264.366 155.258 271.156C154.661 271.704 154.037 272.252 153.259 272.519C152.482 272.773 151.76 272.907 151.094 272.947Z" fill="#1F143F"/>
<path d="M130.772 221.191C128.274 225.255 125.317 229.652 124.498 234.237C123.457 240.092 125.123 245.612 127.024 251.186C130.606 261.679 135.964 271.423 142.266 280.553C142.529 280.927 142.876 281.341 143.334 281.315C143.557 281.301 143.765 281.181 143.959 281.047C147.013 279.109 150.067 277.157 153.134 275.219C153.62 274.912 154.12 274.578 154.37 274.07C154.731 273.321 154.411 272.466 154.106 271.704C151.33 264.954 148.568 258.217 145.791 251.467C144.57 248.499 143.334 245.479 143.015 242.297C142.543 237.552 144.181 232.78 146.791 228.73C149.4 224.68 152.94 221.258 156.563 218.023C157.854 216.874 159.2 215.698 159.922 214.16C162.254 209.228 161.866 203.48 161.352 198.214C161.074 195.42 161.505 186.157 156.91 186.251C156.063 186.264 155.3 186.759 154.634 187.253C149.373 191.17 145.93 196.744 142.613 202.171C139.031 208.039 135.173 213.733 131.688 219.654C131.397 220.175 131.092 220.683 130.772 221.191Z" fill="#1F143F"/>
<path d="M210.171 256.426C210.379 242.672 210.588 228.904 209.783 215.163C209.574 211.688 209.297 208.212 208.964 204.75C208.742 202.505 208.464 202.598 210.157 201.449C211.407 200.607 213.558 200.259 215.002 199.751C223.775 196.677 232.547 193.576 241.265 190.354C249.024 187.481 256.672 183.818 262.169 177.629C254.118 179.3 245.901 180.035 237.711 180.771C226.676 181.76 215.599 182.735 204.522 182.468C200.01 182.361 195.069 181.626 191.043 179.648C192.57 183.604 194.514 188.015 194.652 192.212C194.805 197.212 195.166 202.197 195.346 207.196C195.707 216.994 195.874 226.805 195.846 236.616C195.818 251.801 194.694 266.491 193.195 281.568C196.623 281.836 200.08 281.542 203.411 280.686C203.994 280.539 204.605 280.365 205.049 279.978C205.521 279.577 205.771 279.015 206.007 278.454C207.77 274.324 209.089 269.993 209.672 265.555C210.074 262.521 210.116 259.46 210.171 256.426Z" fill="#1F143F"/>
<path d="M171.915 246.802C180.855 228.703 184.408 206.287 175.608 187.507C174.775 185.716 172.429 179.273 170.305 178.779C169.944 178.699 168.168 179.421 167.682 179.568C167.529 179.608 167.39 179.674 167.238 179.728C167.432 180.597 167.945 181.238 168.404 182.214C169.278 184.072 169.736 186.077 170.194 188.069C172.207 196.851 172.471 205.993 170.93 214.869C172.249 214.735 173.609 214.882 174.872 215.31C174.678 216.687 173.581 217.783 172.929 219.026C171.638 221.499 172.124 224.426 172.457 227.18C173.304 234.291 172.832 241.535 171.083 248.486C171.36 247.898 171.652 247.35 171.915 246.802Z" fill="#274169"/>
<path d="M203.467 216.58C202.481 210.244 201.565 203.895 200.538 197.559C199.649 191.544 197.553 186.304 194.874 181.065C193.556 180.677 192.265 180.209 191.071 179.621C192.598 183.578 194.541 187.989 194.68 192.186C194.833 197.185 195.194 202.171 195.374 207.17C195.735 216.967 195.902 226.779 195.874 236.59C195.874 239.316 195.818 242.017 195.749 244.717C197.692 238.875 200.663 233.275 201.468 227.18C201.94 223.544 201.621 219.868 201.301 216.232C201.954 216.54 202.717 216.66 203.467 216.58Z" fill="#274169"/>
<path d="M185.352 188.817C187.379 194.097 188.031 199.818 188.448 205.392C188.878 211.033 188.878 216.7 188.711 222.354C188.378 233.769 187.656 244.984 185.144 256.172C183.756 262.361 182.257 268.536 181.091 274.765C180.938 275.607 182.271 275.968 182.423 275.126C184.519 263.951 187.837 252.991 189.031 241.669C189.627 236.015 189.822 230.321 190.03 224.653C190.238 218.785 190.321 212.904 189.961 207.036C189.572 200.821 188.961 194.338 186.699 188.456C186.393 187.654 185.047 188.002 185.352 188.817Z" fill="white"/>
<path d="M580.625 324.195L562.358 317.966L552.739 334.487L553.322 334.688C549.713 334.46 546.145 334.647 542.661 335.222L543.216 334.968L531.862 319.516L514.372 327.55L519.702 345.782L520.257 345.528C517.592 347.773 515.191 350.327 513.109 353.174L513.317 352.612L493.939 349.418L487.47 367.008L504.627 376.271L504.836 375.71C504.6 379.185 504.794 382.62 505.391 385.975L505.127 385.441L489.081 396.375L497.423 413.217L516.357 408.084L516.093 407.549C518.425 410.116 521.076 412.428 524.033 414.433L523.45 414.232L520.132 432.892L538.4 439.121L548.019 422.6L547.436 422.4C551.045 422.627 554.612 422.44 558.097 421.865L557.541 422.119L568.896 437.571L586.386 429.537L581.056 411.305L580.5 411.559C583.166 409.314 585.567 406.761 587.649 403.913L587.441 404.475L606.819 407.669L613.287 390.079L596.13 380.816L595.922 381.377C596.158 377.902 595.964 374.467 595.367 371.098L595.631 371.633L611.677 360.699L603.335 343.857L584.401 348.99L584.665 349.524C582.333 346.958 579.681 344.646 576.725 342.641L577.308 342.841L580.625 324.195Z" fill="#6A8FBC"/>
<path d="M575.7 407.813C592.494 394.332 594.759 370.294 580.76 354.123C566.76 337.951 541.797 335.77 525.004 349.251C508.21 362.732 505.945 386.77 519.944 402.941C533.944 419.113 558.907 421.294 575.7 407.813Z" fill="#A0B3D9"/>
<path d="M576.64 392.008C584.358 378.05 578.864 360.71 564.369 353.278C549.874 345.846 531.867 351.136 524.149 365.094C516.431 379.052 521.925 396.392 536.42 403.824C550.915 411.256 568.922 405.966 576.64 392.008Z" fill="#5A82AD"/>
<path d="M563.951 393.518C572.549 386.277 573.423 373.695 565.904 365.416C558.384 357.137 545.318 356.295 536.72 363.536C528.123 370.777 527.249 383.359 534.768 391.638C542.288 399.917 555.353 400.759 563.951 393.518Z" fill="white"/>
<path d="M553.988 240.907L542.3 235.467L534.624 245.786L534.999 245.96C532.611 245.559 530.224 245.425 527.85 245.559L528.239 245.425L521.854 234.331L509.597 238.434L511.748 250.945L512.137 250.812C510.194 252.122 508.403 253.646 506.793 255.397L506.973 255.036L494.314 251.534L488.664 262.788L499.38 270.18L499.561 269.819C499.144 272.118 499.006 274.417 499.144 276.703L499.006 276.329L487.484 282.477L491.746 294.28L504.738 292.208L504.6 291.834C505.96 293.705 507.542 295.43 509.361 296.98L508.986 296.806L505.349 308.997L517.037 314.437L524.713 304.118L524.338 303.944C526.726 304.345 529.113 304.479 531.487 304.345L531.098 304.479L537.483 315.573L549.74 311.47L547.589 298.958L547.2 299.092C549.143 297.782 550.934 296.258 552.544 294.507L552.364 294.868L565.023 298.37L570.673 287.116L559.957 279.724L559.776 280.085C560.193 277.786 560.331 275.487 560.193 273.201L560.331 273.575L571.853 267.427L567.591 255.624L554.599 257.696L554.737 258.07C553.377 256.199 551.795 254.474 549.976 252.924L550.351 253.098L553.988 240.907Z" fill="#6A8FBC"/>
<path d="M553.709 285.803C559.929 273.03 554.219 257.82 540.955 251.83C527.691 245.84 511.895 251.338 505.675 264.111C499.454 276.884 505.164 292.094 518.429 298.084C531.693 304.074 547.488 298.576 553.709 285.803Z" fill="#A0B3D9"/>
<path d="M538.344 257.682C548.255 262.294 552.392 273.776 547.603 283.306C542.814 292.85 530.89 296.833 520.993 292.222C511.082 287.61 506.945 276.128 511.734 266.598C516.523 257.054 528.447 253.057 538.344 257.682Z" fill="#5A82AD"/>
<path d="M535.707 262.935C542.592 266.143 545.479 274.123 542.148 280.766C538.816 287.396 530.529 290.177 523.63 286.969C516.745 283.761 513.858 275.781 517.19 269.137C520.521 262.494 528.808 259.727 535.707 262.935Z" fill="white"/>
</g>
<defs>
<clipPath id="clip0_24_309">
<rect width="654" height="444" fill="white"/>
</clipPath>
</defs>
</svg>
