<svg width="29" height="28" viewBox="0 0 29 28" fill="none" xmlns="http://www.w3.org/2000/svg">
<path d="M27.6698 26.0043L19.6296 17.9584C21.2146 16.0574 22.168 13.6281 22.168 10.9749C22.168 4.92175 17.2003 0 11.0897 0C4.97918 0 0 4.92749 0 10.9806C0 17.0337 4.9677 21.9555 11.0782 21.9555C13.6741 21.9555 16.0632 21.0653 17.9584 19.5779L26.0273 27.6468C26.4982 28.1177 27.1989 28.1177 27.6698 27.6468C28.1407 27.1759 28.1407 26.4752 27.6698 26.0043ZM2.35463 10.9806C2.35463 6.22541 6.27136 2.36037 11.0782 2.36037C15.8851 2.36037 19.8019 6.22541 19.8019 10.9806C19.8019 15.7358 15.8851 19.6009 11.0782 19.6009C6.27136 19.6009 2.35463 15.7301 2.35463 10.9806Z" fill="#55C0F9" fill-opacity="0.34"/>
</svg>
